PathFileType	4	(X/Y/Z)	Walk2.trc
DataRate	CameraRate	NumFrames	NumMarkers	Units	OrigDataRate	OrigDataStartFrame	OrigNumFrames
200.000000	200.000000	9	59	mm	200.000000	379	485
Frame#	Times		LBHD		C7		T10		RBack		LPSI		RPSI		RCAR		LElbowM		LMT1		LLFC		RWRR		LFHD		LUA1		RUA1		RFA1		CLAV		LCAR		RFHD		RElbowM		LWRU		LACR1		RBHD		RACR1		RTH3		LFA1		RWRU		RTH4		RTH2		RTB1		RTB4		RCAL		RToe		RTB3		RLFC		RMT1		RMT5		LWRR		RElbow		RTB2		LTH4		RTH1		LTH1		LTB3		STRN		LElbow		RMMAL		LTH3		RASI		LTH2		LCAL		LASI		LLMAL		RLMAL		LTB2		LTB4		LMT5		LMMAL		LToe		LTB1
			X1	Y1	Z1	X2	Y2	Z2	X3	Y3	Z3	X4	Y4	Z4	X5	Y5	Z5	X6	Y6	Z6	X7	Y7	Z7	X8	Y8	Z8	X9	Y9	Z9	X10	Y10	Z10	X11	Y11	Z11	X12	Y12	Z12	X13	Y13	Z13	X14	Y14	Z14	X15	Y15	Z15	X16	Y16	Z16	X17	Y17	Z17	X18	Y18	Z18	X19	Y19	Z19	X20	Y20	Z20	X21	Y21	Z21	X22	Y22	Z22	X23	Y23	Z23	X24	Y24	Z24	X25	Y25	Z25	X26	Y26	Z26	X27	Y27	Z27	X28	Y28	Z28	X29	Y29	Z29	X30	Y30	Z30	X31	Y31	Z31	X32	Y32	Z32	X33	Y33	Z33	X34	Y34	Z34	X35	Y35	Z35	X36	Y36	Z36	X37	Y37	Z37	X38	Y38	Z38	X39	Y39	Z39	X40	Y40	Z40	X41	Y41	Z41	X42	Y42	Z42	X43	Y43	Z43	X44	Y44	Z44	X45	Y45	Z45	X46	Y46	Z46	X47	Y47	Z47	X48	Y48	Z48	X49	Y49	Z49	X50	Y50	Z50	X51	Y51	Z51	X52	Y52	Z52	X53	Y53	Z53	X54	Y54	Z54	X55	Y55	Z55	X56	Y56	Z56	X57	Y57	Z57	X58	Y58	Z58	X59	Y59	Z59

379	1.895	568.38	1469.8	-46.279	534.13	1337.3	29.1	495.8	1067.2	8.803	513.39	1228.3	157.2	481.42	868.63	-45.096	469.81	890.14	50.91	844.05	776.16	294.18	492	973.41	-190.18	1011	105.38	-55.151	780.8	451.08	-129.92	847.32	824.22	250.17	741.56	1458.5	-30.215	572.56	1118.5	-232.74	645.48	1115.2	252.58	720.11	860.46	287.84	654.15	1252.4	23.928	593.15	732.08	-340.9	749.56	1468.1	46.873	628.68	923.17	214.82	551.01	772.61	-317.61	600.65	1279.8	-139.9	572.19	1478.4	77.208	611.92	1268	175.88	539.75	545.74	164.66	532.93	888.79	-295.94	789.81	779.01	263.74	563.72	634.56	191.58	634.84	627.24	160.04	516.83	322.05	58.348	486.79	235.22	56.057	353.96	51.815	71.398	565.13	23.116	29.104	468.59	142.9	50.878	525.98	447	145.96	506.62	41.703	24.065	489.81	31.574	81.631	618.21	761.28	-287.9	659.94	973.71	291.66	466.66	237.78	127.38	724.52	644.42	-164.16	588.39	716.02	219.63	679.83	723.62	-188.73	911.34	189	-47.72	715.21	1147.4	15.077	518.99	1010	-256.62	416.59	77.826	13.196	763.75	561.64	-141.21	658.89	863.79	150.57	772.39	684.51	-124.71	876.74	28.541	-34.572	685.77	845.14	-154.45	898.32	76.541	-84.166	418.51	68.548	94.097	845.15	261.23	-116.17	874.86	272.94	-52.651	991.97	76.305	-103.84	924.12	93.126	-11.08	1059.5	107.91	-76.622	856.12	362.93	-56.583
380	1.9	574.69	1468.7	-46.925	540.28	1336.2	28.423	502.13	1066	8.2953	519.54	1227.3	156.63	488.15	867.65	-45.799	476.19	889.37	50.058	851.55	775.81	293.37	498	972.02	-190.22	1022.7	107.15	-54.483	787.23	449.82	-129.64	854.5	823.75	249.21	747.84	1457.2	-30.804	578.28	1117.2	-233.18	652.16	1114.3	251.99	727.4	859.84	287.33	660.37	1251.3	23.394	598.23	730.71	-341.34	755.82	1466.9	46.329	635.58	922.25	214.54	556.22	771.35	-318.01	606.89	1278.5	-140.5	578.46	1477.3	76.568	618.02	1267.1	175.36	544.19	545.25	164.62	538.37	887.51	-296.22	797.18	778.46	263.07	568.39	633.96	191.64	639.74	626.26	160.76	520.25	321.43	58.384	489.21	235.01	55.945	354.21	53.037	71.221	565.19	23.154	29.042	469.92	142.89	50.8	530.19	446.52	145.91	506.83	41.777	23.867	489.89	31.691	81.463	623.42	759.85	-288.38	667.11	972.98	291.19	468.86	237.89	127.32	730.57	642.89	-164.21	593.25	715.39	219.72	685.75	722.01	-188.86	921.53	189.63	-47.238	721.52	1146.4	14.788	524.61	1008.7	-256.79	417.16	78.477	13.043	769.92	560.16	-140.97	664.52	863.02	149.95	778.52	683.1	-125	889.23	28.425	-35.008	691.28	843.89	-154.51	910.54	77.085	-84.26	418.96	69.145	93.95	854.84	261.2	-115.9	883.81	273.07	-52.075	1004.2	78.203	-103.43	935.5	93.756	-10.866	1071.2	110.4	-75.585	863.67	362.83	-55.766
381	1.905	581.01	1467.7	-47.614	546.43	1335.1	27.688	508.53	1064.8	7.7632	525.69	1226.3	156	494.93	866.73	-46.514	482.65	888.61	49.22	858.93	775.43	292.55	504.06	970.65	-190.25	1033.6	108.53	-53.692	793.76	448.65	-129.37	861.58	823.24	248.23	754.12	1456.1	-31.414	584.03	1116	-233.65	658.85	1113.6	251.37	734.6	859.25	286.79	666.62	1250.3	22.818	603.36	729.36	-341.76	762.08	1465.8	45.76	642.42	921.38	214.24	561.48	770.1	-318.39	613.14	1277.3	-141.15	584.72	1476.3	75.888	624.13	1266.1	174.8	548.73	544.77	164.6	543.83	886.25	-296.49	804.43	777.9	262.39	573.13	633.37	191.71	644.72	625.33	161.48	523.73	320.81	58.41	491.69	234.81	55.845	354.49	54.351	71.096	565.24	23.184	28.962	471.28	142.92	50.737	534.54	446.03	145.87	507.05	41.865	23.683	490	31.82	81.317	628.68	758.45	-288.85	674.25	972.31	290.69	471.16	238.03	127.28	736.7	641.47	-164.23	598.16	714.78	219.81	691.73	720.51	-188.94	931.15	190.09	-46.681	727.86	1145.5	14.461	530.24	1007.4	-256.96	417.75	79.188	12.927	776.16	558.79	-140.73	670.22	862.25	149.34	784.77	681.79	-125.31	900.78	28.284	-35.386	696.3	842.81	-154.54	921.93	77.519	-84.285	419.45	69.802	93.84	864.2	261.13	-115.6	892.4	273.1	-51.455	1015.5	79.753	-102.89	946.06	94.21	-10.578	1082.2	112.39	-74.405	871.09	362.63	-54.926
382	1.91	587.32	1466.7	-48.347	552.58	1334.1	26.897	514.98	1063.6	7.2076	531.85	1225.4	155.32	501.76	865.86	-47.237	489.18	887.85	48.402	866.17	775.03	291.72	510.18	969.32	-190.29	1043.7	109.48	-52.78	800.38	447.58	-129.1	868.55	822.7	247.23	760.4	1455	-32.044	589.83	1114.8	-234.15	665.53	1112.8	250.71	741.72	858.69	286.23	672.88	1249.4	22.199	608.53	728.03	-342.15	768.33	1464.6	45.165	649.19	920.59	213.91	566.79	768.87	-318.74	619.41	1276.1	-141.85	590.96	1475.2	75.169	630.22	1265.3	174.19	553.39	544.29	164.59	549.33	885.01	-296.76	811.56	777.32	261.72	577.96	632.81	191.79	649.77	624.43	162.2	527.29	320.19	58.426	494.22	234.64	55.756	354.82	55.763	71.027	565.29	23.208	28.865	472.69	143	50.689	539.04	445.52	145.82	507.27	41.969	23.518	490.13	31.962	81.196	634	757.08	-289.29	681.36	971.69	290.15	473.57	238.2	127.25	742.92	640.16	-164.22	603.12	714.2	219.91	697.79	719.13	-188.96	940.21	190.34	-46.055	734.23	1144.6	14.097	535.89	1006.2	-257.15	418.38	79.965	12.851	782.5	557.51	-140.48	675.99	861.48	148.76	791.14	680.58	-125.65	911.38	28.093	-35.699	700.75	841.9	-154.54	932.5	77.808	-84.237	419.99	70.523	93.77	873.19	261	-115.27	900.63	272.99	-50.794	1026.1	80.908	-102.24	955.8	94.456	-10.218	1092.3	113.81	-73.086	878.37	362.33	-54.07
383	1.915	593.64	1465.8	-49.123	558.74	1333.1	26.048	521.51	1062.5	6.6294	538.02	1224.5	154.58	508.64	865.05	-47.961	495.78	887.1	47.608	873.3	774.6	290.89	516.36	968.02	-190.33	1053.1	109.97	-51.753	807.11	446.6	-128.85	875.42	822.12	246.22	766.69	1454	-32.693	595.67	1113.7	-234.69	672.21	1112.2	250.02	748.74	858.15	285.64	679.16	1248.5	21.534	613.74	726.72	-342.53	774.57	1463.6	44.546	655.89	919.86	213.55	572.14	767.67	-319.07	625.7	1274.9	-142.59	597.2	1474.3	74.408	636.32	1264.5	173.52	558.17	543.81	164.59	554.86	883.8	-297.02	818.56	776.74	261.05	582.88	632.26	191.88	654.89	623.58	162.89	530.92	319.59	58.431	496.82	234.5	55.681	355.19	57.278	71.015	565.34	23.224	28.752	474.13	143.13	50.654	543.68	445.02	145.77	507.51	42.088	23.374	490.28	32.119	81.1	639.37	755.75	-289.73	688.43	971.14	289.58	476.09	238.38	127.24	749.23	638.98	-164.16	608.15	713.65	220	703.96	717.87	-188.91	948.7	190.37	-45.365	740.63	1143.8	13.694	541.57	1005	-257.34	419.03	80.811	12.819	788.95	556.36	-140.21	681.83	860.72	148.19	797.66	679.48	-125.99	921	27.832	-35.944	704.56	841.17	-154.52	942.22	77.924	-84.116	420.58	71.312	93.741	881.83	260.79	-114.9	908.51	272.74	-50.098	1035.7	81.634	-101.46	964.72	94.467	-9.7892	1101.7	114.63	-71.637	885.52	361.92	-53.205
384	1.92	599.97	1464.9	-49.941	564.91	1332.1	25.14	528.1	1061.4	6.0296	544.21	1223.6	153.78	515.58	864.31	-48.681	502.45	886.36	46.841	880.29	774.15	290.05	522.61	966.75	-190.37	1061.6	109.97	-50.621	813.95	445.72	-128.59	882.18	821.52	245.2	772.98	1453	-33.36	601.56	1112.5	-235.26	678.88	1111.6	249.3	755.66	857.63	285.02	685.47	1247.6	20.825	619	725.43	-342.88	780.81	1462.6	43.903	662.53	919.19	213.17	577.54	766.49	-319.38	632.02	1273.8	-143.39	603.42	1473.4	73.606	642.43	1263.8	172.8	563.08	543.33	164.61	560.44	882.61	-297.28	825.44	776.15	260.38	587.91	631.72	191.98	660.11	622.76	163.55	534.63	319.01	58.424	499.48	234.38	55.62	355.62	58.902	71.059	565.38	23.231	28.623	475.62	143.31	50.632	548.47	444.5	145.72	507.76	42.222	23.251	490.46	32.295	81.028	644.8	754.46	-290.16	695.45	970.64	288.98	478.73	238.58	127.24	755.67	637.91	-164.07	613.26	713.13	220.09	710.23	716.74	-188.8	956.64	190.16	-44.62	747.07	1143.1	13.251	547.29	1003.8	-257.55	419.72	81.731	12.832	795.51	555.31	-139.93	687.74	859.98	147.65	804.33	678.49	-126.33	929.66	27.488	-36.122	707.66	840.61	-154.49	951.1	77.845	-83.923	421.23	72.172	93.754	890.09	260.48	-114.49	916.03	272.34	-49.372	1044.5	81.905	-100.57	972.84	94.224	-9.2972	1110.3	114.82	-70.073	892.55	361.4	-52.336
385	1.925	606.31	1464.1	-50.801	571.09	1331.2	24.174	534.76	1060.4	5.4095	550.41	1222.8	152.92	522.57	863.63	-49.39	509.19	885.66	46.104	887.15	773.68	289.2	528.91	965.53	-190.43	1069.4	109.49	-49.396	820.88	444.94	-128.32	888.83	820.88	244.17	779.27	1452.1	-34.045	607.52	1111.5	-235.87	685.54	1111.1	248.54	762.49	857.15	284.38	691.81	1246.9	20.069	624.3	724.17	-343.2	787.04	1461.7	43.237	669.09	918.59	212.76	582.98	765.34	-319.66	638.38	1272.7	-144.24	609.62	1472.6	72.762	648.54	1263.1	172.03	568.11	542.85	164.65	566.05	881.46	-297.54	832.2	775.55	259.71	593.04	631.2	192.08	665.43	621.97	164.18	538.42	318.45	58.408	502.2	234.31	55.577	356.1	60.642	71.157	565.41	23.231	28.48	477.15	143.55	50.621	553.4	443.98	145.66	508.03	42.373	23.15	490.67	32.491	80.98	650.3	753.21	-290.58	702.43	970.2	288.33	481.49	238.8	127.23	762.22	636.98	-163.93	618.46	712.64	220.18	716.64	715.75	-188.63	964.04	189.7	-43.83	753.55	1142.5	12.767	553.05	1002.6	-257.78	420.46	82.729	12.888	802.2	554.39	-139.63	693.72	859.27	147.15	811.15	677.62	-126.65	937.37	27.054	-36.235	710.01	840.21	-154.46	959.14	77.561	-83.664	421.94	73.107	93.806	897.97	260.07	-114.04	923.21	271.78	-48.623	1052.5	81.709	-99.576	980.16	93.717	-8.7501	1118.2	114.37	-68.412	899.47	360.77	-51.47
386	1.93	612.65	1463.4	-51.703	577.29	1330.4	23.148	541.5	1059.4	4.7704	556.63	1222	152.01	529.61	863.01	-50.082	516	884.99	45.398	893.88	773.2	288.36	535.26	964.35	-190.51	1076.5	108.53	-48.098	827.91	444.23	-128.05	895.39	820.23	243.13	785.57	1451.3	-34.747	613.54	1110.4	-236.51	692.18	1110.7	247.76	769.23	856.7	283.72	698.18	1246.2	19.266	629.65	722.94	-343.51	793.27	1460.8	42.548	675.57	918.06	212.34	588.48	764.21	-319.91	644.77	1271.6	-145.14	615.82	1471.8	71.878	654.66	1262.5	171.21	573.29	542.37	164.7	571.71	880.33	-297.8	838.83	774.96	259.05	598.3	630.69	192.18	670.85	621.22	164.76	542.29	317.92	58.384	505	234.27	55.552	356.65	62.507	71.303	565.44	23.223	28.325	478.74	143.87	50.621	558.47	443.47	145.62	508.31	42.539	23.069	490.91	32.71	80.958	655.85	752.01	-291	709.34	969.81	287.65	484.36	239.03	127.2	768.9	636.17	-163.74	623.77	712.16	220.27	723.19	714.89	-188.41	970.91	189.01	-43.006	760.07	1141.9	12.24	558.85	1001.5	-258.02	421.24	83.811	12.985	809.01	553.59	-139.33	699.77	858.59	146.67	818.13	676.86	-126.96	944.16	26.535	-36.291	711.63	839.96	-154.43	966.37	77.069	-83.345	422.72	74.121	93.895	905.47	259.55	-113.55	930.06	271.06	-47.86	1059.7	81.045	-98.495	986.72	92.947	-8.1581	1125.4	113.28	-66.674	906.26	360.02	-50.612
387	1.935	619	1462.8	-52.645	583.51	1329.6	22.064	548.3	1058.5	4.114	562.88	1221.3	151.04	536.7	862.47	-50.754	522.87	884.37	44.726	900.48	772.69	287.52	541.66	963.23	-190.6	1082.8	107.1	-46.745	835.01	443.62	-127.76	901.84	819.57	242.1	791.87	1450.6	-35.466	619.63	1109.4	-237.18	698.8	1110.3	246.94	775.87	856.29	283.05	704.59	1245.6	18.416	635.05	721.73	-343.79	799.49	1460.1	41.838	681.98	917.59	211.88	594.02	763.12	-320.14	651.2	1270.7	-146.09	622.01	1471.1	70.952	660.81	1262	170.33	578.61	541.9	164.76	577.41	879.24	-298.05	845.33	774.38	258.4	603.69	630.2	192.27	676.38	620.5	165.29	546.26	317.43	58.356	507.87	234.28	55.546	357.27	64.502	71.49	565.46	23.207	28.16	480.38	144.25	50.63	563.69	442.95	145.58	508.61	42.722	23.008	491.18	32.955	80.962	661.47	750.85	-291.41	716.2	969.48	286.93	487.36	239.27	127.15	775.71	635.48	-163.51	629.2	711.71	220.34	729.89	714.17	-188.13	977.29	188.08	-42.162	766.64	1141.4	11.669	564.72	1000.4	-258.28	422.09	84.982	13.12	815.95	552.89	-139	705.89	857.97	146.23	825.25	676.21	-127.23	950.07	25.943	-36.297	712.56	839.81	-154.41	972.82	76.376	-82.975	423.56	75.218	94.016	912.59	258.91	-113.03	936.6	270.2	-47.09	1066.1	79.924	-97.343	992.57	91.928	-7.5331	1131.9	111.56	-64.885	912.94	359.17	-49.767
